<?xml version="1.0" encoding="UTF-8"?>
<svg id="Capa_1" xmlns="http://www.w3.org/2000/svg" version="1.1" viewBox="0 0 16 16">
  <!-- Generator: Adobe Illustrator 29.0.0, SVG Export Plug-In . SVG Version: 2.1.0 Build 186)  -->
  <defs>
    <style>
      .st0 {
        fill: #fff;
      }
    </style>
  </defs>
  <path class="st0" d="M.2,4.1c0-1.1.9-2,2-2h11.8c1.1,0,2,.9,2,2v7.8c0,1.1-.9,2-2,2H2.1c-1.1,0-2-.9-2-2v-7.8ZM2.1,3.1c-.5,0-1,.4-1,1v.2l6.9,4.1,6.9-4.1v-.2c0-.5-.4-1-1-1H2.1ZM14.9,5.4l-4.6,2.8,4.6,2.8v-5.6ZM14.8,12.2l-5.5-3.4-1.3.8-1.3-.8-5.5,3.4c.1.4.5.7.9.7h11.8c.4,0,.8-.3.9-.7M1.1,11l4.6-2.8L1.1,5.4v5.6Z"/>
</svg>