<?xml version="1.0" encoding="UTF-8"?>
<svg id="Capa_1" xmlns="http://www.w3.org/2000/svg" version="1.1" viewBox="0 0 1024 1024">
  <!-- Generator: Adobe Illustrator 29.0.0, SVG Export Plug-In . SVG Version: 2.1.0 Build 186)  -->
  <defs>
    <style>
      .st0 {
        fill: #a773af;
      }

      .st1 {
        fill: #d3d3d3;
      }

      .st2 {
        fill: #9e384d;
      }

      .st3 {
        fill: #c095c2;
      }

      .st4 {
        fill: #5b1b20;
      }

      .st5 {
        fill: #792935;
      }

      .st6 {
        fill: #825ca2;
      }
    </style>
  </defs>
  <g>
    <g>
      <polyline class="st0" points="551 451.2 565.1 424.9 579.2 398.7"/>
      <polyline class="st0" points="551 451.2 565.1 424.9 579.2 398.7"/>
      <polyline class="st0" points="468.7 451.2 454.6 424.9 440.5 398.7"/>
      <polyline class="st0" points="468.7 451.2 454.6 424.9 440.5 398.7"/>
      <polygon class="st0" points="616.1 286.1 589 221.7 590.2 286.7 616.1 286.1"/>
      <polygon class="st3" points="570 296.1 558.6 343 545.2 298 570 296.1"/>
      <polygon class="st6" points="565.1 424.9 579.2 398.7 509.9 370 565.1 424.9"/>
      <polygon class="st6" points="509.9 231 556.4 282.9 555.2 198.7 509.9 231"/>
      <polygon class="st3" points="590.2 286.7 556.4 282.9 555.2 198.7 590.2 286.7"/>
      <polygon class="st6" points="545.2 298 509.9 279.4 509.9 343 545.2 298"/>
      <polygon class="st0" points="509.9 279.4 509.9 231 556.4 282.9 509.9 279.4"/>
      <polygon class="st0" points="558.6 343 545.2 298 509.9 343 558.6 343"/>
      <polygon class="st6" points="509.9 370 509.9 410.9 565.1 424.9 509.9 370"/>
      <polygon class="st3" points="579.2 398.7 509.9 370 558.6 343 579.2 398.7"/>
      <polygon class="st0" points="565.1 424.9 551 451.2 509.9 410.9 565.1 424.9"/>
      <polygon class="st3" points="509.9 410.9 509.9 460.6 551 451.2 509.9 410.9"/>
      <polygon class="st0" points="590.2 286.7 610.1 348.3 616.1 286.1 590.2 286.7"/>
      <polygon class="st0" points="558.6 343 590.2 286.7 570 296.1 558.6 343"/>
      <polygon class="st6" points="610.1 348.3 590.2 286.7 558.6 343 610.1 348.3"/>
      <polygon class="st0" points="589 221.7 590.2 286.7 555.2 198.7 589 221.7"/>
      <polygon class="st0" points="558.6 343 579.2 398.7 610.1 348.3 558.6 343"/>
      <polygon class="st6" points="509.9 231 463.3 282.9 464.5 198.7 509.9 231"/>
      <polygon class="st3" points="429.5 286.7 463.3 282.9 464.5 198.7 429.5 286.7"/>
      <polygon class="st0" points="403.6 286.1 430.8 221.7 429.5 286.7 403.6 286.1"/>
      <polygon class="st3" points="449.8 296.1 461.1 343 474.5 298 449.8 296.1"/>
      <polygon class="st6" points="454.6 424.9 440.5 398.7 509.9 370 454.6 424.9"/>
      <polygon class="st6" points="474.5 298 509.9 279.4 509.9 343 474.5 298"/>
      <polygon class="st0" points="509.9 279.4 509.9 231 463.3 282.9 509.9 279.4"/>
      <polygon class="st0" points="461.1 343 474.5 298 509.9 343 461.1 343"/>
      <polygon class="st6" points="509.9 370 509.9 410.9 454.6 424.9 509.9 370"/>
      <polygon class="st3" points="440.5 398.7 509.9 370 461.1 343 440.5 398.7"/>
      <polygon class="st0" points="454.6 424.9 468.7 451.2 509.9 410.9 454.6 424.9"/>
      <polygon class="st3" points="509.9 410.9 509.9 460.6 468.7 451.2 509.9 410.9"/>
      <polygon class="st0" points="429.5 286.7 409.7 348.3 403.6 286.1 429.5 286.7"/>
      <polygon class="st0" points="461.1 343 429.5 286.7 449.8 296.1 461.1 343"/>
      <polygon class="st6" points="409.7 348.3 429.5 286.7 461.1 343 409.7 348.3"/>
      <polygon class="st0" points="430.8 221.7 429.5 286.7 464.5 198.7 430.8 221.7"/>
      <polygon class="st6" points="430.8 221.7 416.6 190 464.5 198.7 430.8 221.7"/>
      <polygon class="st0" points="461.1 343 440.5 398.7 409.7 348.3 461.1 343"/>
      <polygon class="st0" points="474.5 298 463.3 282.9 509.9 279.4 474.5 298"/>
      <polygon class="st0" points="545.2 298 556.4 282.9 509.9 279.4 545.2 298"/>
      <polygon class="st6" points="416.6 190 430.8 221.7 403.6 286.1 416.6 190"/>
      <polygon class="st6" points="589 221.7 603.2 190 555.2 198.7 589 221.7"/>
      <polygon class="st6" points="603.2 190 589 221.7 616.1 286.1 603.2 190"/>
      <g>
        <polygon class="st0" points="555.2 198.7 603.2 190 581.5 148.1 555.2 198.7"/>
        <polygon class="st3" points="603.2 190 638.6 195.9 581.5 148.1 603.2 190"/>
        <polygon class="st0" points="603.2 190 638.6 195.9 616.1 286.1 603.2 190"/>
      </g>
      <g>
        <polygon class="st0" points="464.5 198.7 416.6 190 438.2 148.1 464.5 198.7"/>
        <polygon class="st3" points="416.6 190 381.1 195.9 438.2 148.1 416.6 190"/>
        <polygon class="st0" points="416.6 190 381.1 195.9 403.6 286.1 416.6 190"/>
      </g>
    </g>
    <g>
      <polygon class="st4" points="555.2 198.7 509.9 106.8 581.5 148.1 555.2 198.7"/>
      <polygon class="st4" points="616.1 286.1 610.1 348.3 693.4 415.1 616.1 286.1"/>
      <polygon class="st4" points="693.4 306.6 616.1 286.1 638.6 195.9 693.4 306.6"/>
      <polygon class="st4" points="649 508.8 579.2 398.7 610.1 348.3 649 508.8"/>
      <polygon class="st4" points="590.2 536 551 451.2 579.2 398.7 590.2 536"/>
      <polygon class="st4" points="509.9 572.5 570 492.2 551 451.2 509.9 572.5"/>
      <polygon class="st4" points="464.5 198.7 509.9 106.8 438.2 148.1 464.5 198.7"/>
      <polygon class="st4" points="403.6 286.1 409.7 348.3 326.3 415.1 403.6 286.1"/>
      <polygon class="st4" points="326.3 306.6 403.6 286.1 381.1 195.9 326.3 306.6"/>
      <polygon class="st4" points="370.8 508.8 440.5 398.7 409.7 348.3 370.8 508.8"/>
      <polygon class="st4" points="429.5 536 468.7 451.2 440.5 398.7 429.5 536"/>
      <polygon class="st4" points="509.9 572.5 449.8 492.2 468.7 451.2 509.9 572.5"/>
    </g>
    <g>
      <polygon class="st5" points="590.2 286.7 556.4 282.9 545.2 298 570 296.1 590.2 286.7"/>
      <polygon class="st5" points="509.9 343 558.6 343 509.9 370 509.9 343"/>
      <polygon class="st5" points="429.5 286.7 463.3 282.9 474.5 298 449.8 296.1 429.5 286.7"/>
      <polygon class="st5" points="509.9 343 461.1 343 509.9 370 509.9 343"/>
    </g>
    <g>
      <polygon class="st5" points="679.5 205.9 581.5 148.1 638.6 195.9 679.5 205.9"/>
      <polygon class="st5" points="581.5 148.1 509.9 106.8 590.2 115.8 581.5 148.1"/>
      <polygon class="st5" points="509.9 106.8 509.9 231 555.2 198.7 509.9 106.8"/>
      <polygon class="st2" points="590.2 115.8 581.5 148.1 678.3 205.9 590.2 115.8"/>
      <polygon class="st5" points="616.1 286.1 672.6 301.1 693.4 415.1 616.1 286.1"/>
      <polygon class="st5" points="638.6 195.9 693.4 306.6 678.3 205.9 638.6 195.9"/>
      <polygon class="st5" points="610.1 348.3 649 508.8 666.2 393.3 610.1 348.3"/>
      <polygon class="st5" points="579.2 398.7 620.9 464.5 590.2 536 579.2 398.7"/>
      <polygon class="st5" points="509.9 460.6 509.9 572.5 551 451.2 509.9 460.6"/>
      <polygon class="st5" points="340.2 205.9 438.2 148.1 381.1 195.9 340.2 205.9"/>
      <polygon class="st5" points="438.2 148.1 509.9 106.8 429.5 115.8 438.2 148.1"/>
      <polygon class="st5" points="509.9 106.8 509.9 231 464.5 198.7 509.9 106.8"/>
      <polygon class="st2" points="429.5 115.8 438.2 148.1 341.4 205.9 429.5 115.8"/>
      <polygon class="st5" points="403.6 286.1 347.1 301.1 326.3 415.1 403.6 286.1"/>
      <polygon class="st5" points="381.1 195.9 326.3 306.6 341.4 205.9 381.1 195.9"/>
      <polygon class="st5" points="409.7 348.3 370.8 508.8 353.5 393.3 409.7 348.3"/>
      <polygon class="st5" points="440.5 398.7 398.9 464.5 429.5 536 440.5 398.7"/>
      <polygon class="st5" points="509.9 460.6 509.9 572.5 468.7 451.2 509.9 460.6"/>
    </g>
  </g>
  <g>
    <g>
      <path class="st1" d="M145.8,916.1v-51.1h2.9v48.2h14.4v2.9h-17.2Z"/>
      <path class="st1" d="M182,882.5l-1.8-1.6,9.6-9.6,1.6,1.7-9.4,9.5ZM180.2,916.1v-29.6h2.9v29.6h-2.9Z"/>
      <path class="st1" d="M229.2,916.1v-5.3c-3.1,3.9-7.2,5.8-12,5.8s-7.9-1.5-10.8-4.4c-3-3-4.4-6.6-4.4-10.9s1.5-7.9,4.4-10.8,6.6-4.4,10.9-4.4,8.7,1.9,12,5.8v-28.8h2.9v53h-2.9ZM225.9,892.6c-2.4-2.4-5.3-3.7-8.7-3.7s-6.3,1.2-8.7,3.6-3.7,5.4-3.7,8.8,1.2,6.3,3.7,8.7c2.4,2.4,5.3,3.7,8.7,3.7s6.3-1.2,8.7-3.6c2.4-2.4,3.7-5.4,3.7-8.8s-1.2-6.3-3.7-8.7Z"/>
      <path class="st1" d="M252.2,900.7c0,4,1.1,7.2,3.2,9.5,2.2,2.4,5.3,3.6,9.2,3.6s3.8-.3,5.4-1c2.1-.9,3.9-2.6,5.5-5.2l2.6,1.2c-1.9,3.5-4.7,5.9-8.6,7.2-1.5.5-3.2.7-5,.7-4.4,0-8.1-1.5-11-4.4-2.9-2.9-4.4-6.6-4.4-11s1.4-8.1,4.3-11c2.9-2.9,6.6-4.4,11-4.4s8,1.4,10.9,4.1c2.9,2.7,4.4,6.3,4.4,10.6h-27.7ZM272.4,891.3c-2.2-1.6-4.8-2.4-7.7-2.4-6.1,0-10.1,3-12,9h24c-.5-2.7-1.9-4.9-4.2-6.6Z"/>
      <path class="st1" d="M311.4,890.9c-.8-.6-1.6-1-2.4-1.4-.9-.3-1.8-.5-2.7-.5s-1.6.3-2.3.8c-.7.5-1.3,1.1-1.9,1.9s-.9,1.6-1.3,2.5c-.3.9-.5,1.7-.5,2.5v19.5h-2.9v-29.6h2.9v4c.6-1.1,1.4-2.1,2.4-3,1-.9,2.1-1.4,3.3-1.4s2.7.2,3.6.5,2,.9,3.2,1.8l-1.6,2.4Z"/>
      <path class="st1" d="M359.9,900.7c0,4,1.1,7.2,3.2,9.5,2.2,2.4,5.3,3.6,9.2,3.6s3.8-.3,5.4-1c2.1-.9,3.9-2.6,5.5-5.2l2.6,1.2c-1.9,3.5-4.7,5.9-8.6,7.2-1.5.5-3.2.7-5,.7-4.4,0-8.1-1.5-11-4.4-2.9-2.9-4.4-6.6-4.4-11s1.4-8.1,4.3-11c2.9-2.9,6.6-4.4,11-4.4s8,1.4,10.9,4.1c2.9,2.7,4.4,6.3,4.4,10.6h-27.7ZM380.1,891.3c-2.2-1.6-4.8-2.4-7.7-2.4-6.1,0-10.1,3-12,9h24c-.5-2.7-1.9-4.9-4.2-6.6Z"/>
      <path class="st1" d="M425.1,916.1v-17.7c0-6.3-2.8-9.4-8.4-9.4s-4.9.8-6.3,2.4c-1.5,1.6-2.2,3.8-2.2,6.7v18h-2.9v-29.6h2.9v3.6c1.3-2.6,4.2-3.9,8.5-3.9s6.5,1.1,8.4,3.2,2.9,5,2.9,8.8v18h-2.9Z"/>
      <path class="st1" d="M511.7,908.3c-4.3,5.2-9.9,7.7-16.8,7.7h-17v-51.1h17c6.9,0,12.5,2.6,16.7,7.7,4.1,4.8,6.1,10.7,6.1,17.8s-2,13-6,17.9ZM509.6,874.7c-3.7-4.6-8.6-6.9-14.7-6.9h-14.2v45.3h14.2c5.2,0,9.8-2,13.7-5.9,4.2-4.2,6.2-9.8,6.2-16.8s-1.7-11.5-5.2-15.7Z"/>
      <path class="st1" d="M535.6,881.2c-.5,0-1.1-.2-1.6-.6-.4-.4-.7-1-.7-1.7,0-1.3.8-2.1,2.4-2.4,1.2,0,2,.8,2.4,2.4,0,1.6-.8,2.4-2.4,2.4ZM534.1,916.1v-29.6h2.9v29.6h-2.9Z"/>
      <path class="st1" d="M572.1,914.2c-1.9,1.6-4.2,2.4-6.9,2.4-4.6,0-8-2.1-10.3-6.2l2.5-1.5c.8,1.5,1.8,2.6,2.9,3.4,1.2.9,2.8,1.4,4.9,1.4,4.5,0,6.7-1.9,6.7-5.7s-.8-3.1-2.4-4.4c-.5-.3-1.2-.6-2-1-.9-.4-2-.8-3.3-1.3-2.4-.9-4.1-1.7-5.2-2.6-1.5-1.2-2.3-3-2.3-5.4s.8-3.7,2.3-5.2c1.5-1.5,3.4-2.2,5.8-2.2s6.1,1.1,8.4,3.4l-2.1,1.9c-1.6-1.6-3.7-2.4-6.2-2.4s-5.2,1.5-5.2,4.5.5,2.4,1.6,3.3c.9.7,2.2,1.3,4.1,1.9,1.6.6,3,1.1,4,1.6,1,.5,1.8.9,2.4,1.3,2,1.6,3.1,3.7,3.1,6.4s-.9,4.7-2.8,6.2Z"/>
      <path class="st1" d="M592.5,900.7c0,4,1.1,7.2,3.2,9.5,2.2,2.4,5.3,3.6,9.2,3.6s3.8-.3,5.4-1c2.1-.9,3.9-2.6,5.5-5.2l2.6,1.2c-1.9,3.5-4.7,5.9-8.6,7.2-1.5.5-3.2.7-5,.7-4.4,0-8.1-1.5-11-4.4-2.9-2.9-4.4-6.6-4.4-11s1.4-8.1,4.3-11c2.9-2.9,6.6-4.4,11-4.4s8,1.4,10.9,4.1c2.9,2.7,4.4,6.3,4.4,10.6h-27.7ZM612.7,891.3c-2.2-1.6-4.8-2.4-7.7-2.4-6.1,0-10.1,3-12,9h24c-.5-2.7-1.9-4.9-4.2-6.6Z"/>
      <path class="st1" d="M659.2,879.2l-1.1.9c-1.1.7-2.4,1-3.9,1-2.2,0-4.1-.4-5.5-1.3l-2.1-.9c-.7-.3-1.5-.4-2.6-.4-1.8,0-3.2.8-4.4,2.4l-2-1.6c1.3-2.4,3.6-3.7,6.8-3.7s2.4.2,3.7.7c.2,0,.4.2.6.3s.4.2.6.4l2.1.9,2.5.3h1.6l.9-.3c.4-.1,1.1-.7,2.1-1.7l2.1,1.6-1.4,1.4ZM657.7,916.1v-17.7c0-6.3-2.8-9.4-8.4-9.4s-4.9.8-6.3,2.4c-1.5,1.6-2.2,3.8-2.2,6.7v18h-2.9v-29.6h2.9v3.6c1.3-2.6,4.2-3.9,8.5-3.9s6.5,1.1,8.4,3.2c2,2.1,2.9,5,2.9,8.8v18h-2.9Z"/>
      <path class="st1" d="M704.7,912.1c-3,3-6.6,4.4-10.9,4.4s-7.9-1.5-10.8-4.4c-3-3-4.4-6.6-4.4-10.9s1.5-7.9,4.4-10.8c2.9-3,6.5-4.5,10.8-4.5s7.8,1.5,10.8,4.4c3,3,4.4,6.6,4.4,10.9s-1.5,7.9-4.4,10.8ZM702.6,892.5c-2.4-2.4-5.3-3.6-8.8-3.6s-6.2,1.2-8.7,3.7c-2.5,2.5-3.7,5.4-3.7,8.7s1.2,6.3,3.7,8.7c2.4,2.4,5.3,3.7,8.7,3.7s6.3-1.2,8.7-3.6c2.4-2.4,3.6-5.4,3.6-8.8s-1.2-6.4-3.6-8.8Z"/>
      <path class="st1" d="M741.7,914.2c-1.9,1.6-4.2,2.4-6.9,2.4-4.6,0-8-2.1-10.3-6.2l2.5-1.5c.8,1.5,1.8,2.6,2.9,3.4,1.2.9,2.8,1.4,4.9,1.4,4.5,0,6.7-1.9,6.7-5.7s-.8-3.1-2.4-4.4c-.5-.3-1.2-.6-2-1-.9-.4-2-.8-3.3-1.3-2.4-.9-4.1-1.7-5.2-2.6-1.5-1.2-2.3-3-2.3-5.4s.8-3.7,2.3-5.2c1.5-1.5,3.4-2.2,5.8-2.2s6.1,1.1,8.4,3.4l-2.1,1.9c-1.6-1.6-3.7-2.4-6.2-2.4s-5.2,1.5-5.2,4.5.5,2.4,1.6,3.3c.9.7,2.2,1.3,4.1,1.9,1.6.6,3,1.1,4,1.6,1,.5,1.8.9,2.4,1.3,2,1.6,3.1,3.7,3.1,6.4s-.9,4.7-2.8,6.2Z"/>
      <path class="st1" d="M815.6,912.5c-2.8,2.6-6.3,3.9-10.5,3.9s-6.6-1-9.1-2.9c-2.4-2-4.1-4.7-4.9-8.2h3.2c.6,2.3,2,4.3,4.1,5.9,2.1,1.6,4.3,2.4,6.7,2.4s5.8-1.1,8.1-3.2c2.2-2.2,3.4-4.9,3.4-8s-1.4-6.9-4.2-9.1c-2.1-1.7-4.2-2.5-6.4-2.5h-3v-4.2h3c3,0,5.4-.8,7.2-2.5,1.8-1.6,2.6-4,2.6-7.1s-1-5.4-2.9-7.2c-1.9-1.9-4.4-2.9-7.4-2.9-5.7,0-9.2,3-10.4,9h-3.4c.4-3.7,1.9-6.6,4.4-8.7,2.5-2.2,5.6-3.2,9.4-3.2s7.2,1.2,9.8,3.6c2.6,2.3,3.9,5.5,3.9,9.4,0,6.3-3.2,10.2-9.6,11.7,6.7,2,10,6.6,10,13.7s-1.4,7.7-4.2,10.2Z"/>
      <path class="st1" d="M873.4,908.3c-4.3,5.2-9.9,7.7-16.8,7.7h-17v-51.1h17c6.9,0,12.5,2.6,16.7,7.7,4.1,4.8,6.1,10.7,6.1,17.8s-2,13-6,17.9ZM871.3,874.7c-3.7-4.6-8.6-6.9-14.7-6.9h-14.2v45.3h14.2c5.2,0,9.8-2,13.7-5.9,4.2-4.2,6.2-9.8,6.2-16.8s-1.7-11.5-5.2-15.7Z"/>
    </g>
    <g>
      <g>
        <path class="st2" d="M99.8,821.7l-74.5-74.7-1.3,1.3v73.4h-8.9v-154.6h8.9v68.6l69.1-68.6h12.6l-74.1,73.8,80.5,80.8h-12.3Z"/>
        <path class="st2" d="M116,823.3h-16.8l-.5-.5-73.1-73.3v73.8h-12v-157.8h12v66.4l66.8-66.4h17.1l-75.6,75.4,82.1,82.3ZM100.5,820.1h7.9l-79-79.2,72.5-72.2h-8.1l-71.3,70.9v-70.9h-5.7v151.4h5.7v-72.5l2.9-2.9,75.1,75.4Z"/>
      </g>
      <g>
        <path class="st2" d="M128.8,821.7v-154.6h8.7v154.6h-8.7Z"/>
        <path class="st2" d="M139.1,823.3h-11.8v-157.8h11.8v157.8ZM130.4,820.1h5.5v-151.4h-5.5v151.4Z"/>
      </g>
      <g>
        <path class="st2" d="M237.1,809.1c-9.4,8.4-20.9,12.6-34.4,12.6h-48.3v-154.6h37.7c12,0,21.5,3.1,28.6,9.3,7.5,6.6,11.3,15.9,11.3,27.7s-5.6,23.5-16.7,29.9c10.8,2.2,19.6,7.1,26.2,14.7,6.5,7.7,9.7,17,9.7,28.1s-4.7,24-14.1,32.3ZM214.3,683.8c-5.9-5.2-13.1-7.8-21.7-7.8h-29.7v56.3h31c8.4,0,15.3-2.6,20.8-7.8,5.5-5.2,8.2-12,8.2-20.4s-2.9-15.4-8.7-20.4ZM230.6,750.7c-7.4-6.3-16.6-9.5-27.7-9.5h-39.8v71.7h39.8c11,0,20.3-3.3,27.9-10,7.8-6.6,11.7-15.3,11.7-26s-4-19.6-11.9-26.2Z"/>
        <path class="st2" d="M202.7,823.3h-49.9v-157.8h39.3c12.3,0,22.3,3.3,29.6,9.7,7.8,6.9,11.8,16.7,11.8,28.9s-4.8,22.5-14.2,29.2c9.5,2.6,17.3,7.4,23.4,14.4,6.7,7.9,10.1,17.7,10.1,29.2s-4.9,24.9-14.6,33.5c-9.6,8.6-21.6,13-35.5,13ZM156,820.1h46.7c13.1,0,24.3-4.1,33.4-12.2h0c9-7.9,13.5-18.3,13.5-31.1s-3.2-19.8-9.4-27.1c-6.4-7.3-14.9-12.1-25.3-14.2l-4.2-.8,3.7-2.1c10.7-6.1,15.9-15.4,15.9-28.5s-3.6-20.2-10.7-26.5c-6.7-5.9-16-8.9-27.5-8.9h-36.1v151.4ZM202.9,814.4h-41.4v-74.8h41.4c11.4,0,21.1,3.3,28.7,9.9,8.3,6.9,12.5,16.2,12.5,27.4s-4.1,20.3-12.3,27.2c-7.9,6.9-17.6,10.3-29,10.3ZM164.6,811.2h38.3c10.5,0,19.6-3.2,26.9-9.6,7.5-6.4,11.1-14.5,11.1-24.8s-3.7-18.6-11.3-25h0c-7-6.1-16-9.2-26.7-9.2h-38.3v68.5ZM194,733.8h-32.5v-59.5h31.2c8.9,0,16.5,2.8,22.7,8.2,6.1,5.2,9.2,12.5,9.2,21.6s-2.9,16-8.7,21.5c-5.8,5.5-13.1,8.2-21.9,8.2ZM164.6,730.7h29.4c7.9,0,14.5-2.5,19.7-7.4,5.1-4.9,7.7-11.3,7.7-19.2s-2.7-14.5-8.1-19.1h0c-5.6-4.9-12.5-7.4-20.6-7.4h-28.1v53.1Z"/>
      </g>
      <g>
        <path class="st2" d="M312.9,684.6l-53,137.1h-8.7l61.7-159.6,61.9,159.6h-8.9l-53-137.1ZM312.5,658.4l-4.1-4.1,24-24.3,4.3,4.3-24.3,24Z"/>
        <path class="st2" d="M377.2,823.3h-12.3l-52-134.3-52,134.3h-12.1l63.1-163.1-5.8-5.8,26.3-26.5,6.6,6.6-25.4,25.1,63.5,163.7ZM367.1,820.1h5.5l-59.6-153.6-59.4,153.6h5.3l54.1-139.9,54.1,139.9ZM310.6,654.3l1.9,1.9,22-21.8-2.1-2.1-21.8,22Z"/>
      </g>
      <g>
        <path class="st2" d="M507.5,800.2c-14.9,15.7-34.6,23.6-59.1,23.6s-42.4-7.4-57.2-22.1c-14.9-14.9-22.3-34-22.3-57.4s7.4-42.1,22.3-56.9c15-15,34.1-22.5,57.2-22.5s49.5,10.6,65.4,31.8l-7.1,5.4c-13.9-19.1-33.3-28.6-58.2-28.6s-37.2,6.7-50.7,20.1c-13.4,13.4-20.1,30.3-20.1,50.7s6.6,37.4,19.9,50.7c13.6,13.3,30.5,19.9,50.9,19.9s39.3-7.3,52.6-21.9c10.1-11,15.9-23.4,17.3-37.2h-51.1v-8.9h60.8c0,21.1-6.9,38.8-20.6,53.3Z"/>
        <path class="st2" d="M448.4,825.4c-23.7,0-43.3-7.6-58.3-22.5-15.1-15.1-22.8-34.8-22.8-58.5s7.7-43,22.8-58.1c15.3-15.3,34.9-23,58.3-23s50.5,10.9,66.7,32.5l.9,1.3-9.7,7.3-1-1.3c-13.5-18.5-32.6-27.9-57-27.9s-36.5,6.6-49.5,19.7c-13.1,13.1-19.7,29.7-19.7,49.5s6.5,36.6,19.5,49.5c13.2,12.9,29.9,19.5,49.8,19.5s38.5-7.2,51.4-21.4c9.4-10.2,15-21.8,16.7-34.6h-50.9v-12h64v1.6c0,21.4-7.1,39.7-21,54.4h0c-15.1,16-35.4,24.1-60.3,24.1ZM448.4,666.5c-22.6,0-41.4,7.4-56,22.1-14.5,14.5-21.8,33.3-21.8,55.8s7.3,41.8,21.8,56.3c14.3,14.3,33.2,21.6,56,21.6s43.5-7.8,58-23.1h0c13-13.7,19.8-30.7,20.1-50.6h-57.7v5.7h51.3l-.2,1.7c-1.5,14.1-7.4,27-17.7,38.2-13.5,14.9-31.6,22.4-53.8,22.4s-38.2-6.9-52-20.4c-13.5-13.5-20.4-31-20.4-51.8s6.9-38.1,20.6-51.8c13.7-13.7,31.1-20.6,51.8-20.6s44.5,9.4,58.6,27.9l4.6-3.5c-15.4-19.9-36.7-29.9-63.2-29.9Z"/>
      </g>
      <g>
        <path class="st2" d="M676.2,801.5c-14.9,14.9-34,22.3-57.4,22.3s-42.4-7.4-57.2-22.1c-14.9-14.9-22.3-34-22.3-57.4s7.4-42.4,22.1-57.2c14.9-14.9,34-22.3,57.4-22.3s42.4,7.4,57.4,22.1c14.9,14.9,22.3,34,22.3,57.4s-7.4,42.4-22.3,57.2ZM669.9,693.5c-13.3-13.3-30.3-19.9-51.1-19.9s-37.4,6.6-50.7,19.9c-13.3,13.3-19.9,30.2-19.9,50.9s6.6,37.5,19.7,50.7c13.3,13.3,30.2,19.9,50.9,19.9s37.8-6.5,51.1-19.5c13.1-13.1,19.7-30.2,19.7-51.1s-6.6-37.7-19.7-50.9Z"/>
        <path class="st2" d="M618.8,825.4c-23.7,0-43.3-7.6-58.3-22.5-15.1-15.1-22.8-34.8-22.8-58.5s7.6-43.3,22.5-58.3c15.1-15.1,34.8-22.8,58.5-22.8s43.2,7.6,58.5,22.5c15.1,15.1,22.8,34.8,22.8,58.5s-7.7,43.3-22.8,58.3c-15.1,15.1-34.8,22.8-58.5,22.8ZM618.8,666.5c-22.8,0-41.8,7.4-56.3,21.8-14.3,14.3-21.6,33.2-21.6,56s7.4,41.8,21.8,56.3c14.3,14.3,33.2,21.6,56,21.6s41.8-7.4,56.3-21.8h0c14.5-14.4,21.8-33.2,21.8-56s-7.3-41.8-21.8-56.3c-14.6-14.3-33.6-21.6-56.3-21.6ZM618.8,816.6c-21,0-38.5-6.9-52-20.4-13.4-13.4-20.2-30.8-20.2-51.8s6.9-38.5,20.4-52c13.5-13.5,31-20.4,51.8-20.4s38.7,6.9,52.2,20.4h0c13.4,13.4,20.2,30.9,20.2,52s-6.8,38.8-20.2,52.2c-13.5,13.2-31.1,19.9-52.2,19.9ZM618.8,675.2c-20,0-36.6,6.5-49.5,19.5-12.9,12.9-19.5,29.7-19.5,49.8s6.5,36.8,19.2,49.5c12.9,12.9,29.7,19.5,49.8,19.5s37.1-6.4,50-19c12.8-12.8,19.2-29.6,19.2-50s-6.5-37-19.2-49.8c-12.9-12.9-29.7-19.5-50-19.5Z"/>
      </g>
      <g>
        <path class="st2" d="M721,690.5v131.2h-8.7v-155.7l115.4,135.3v-134.2h8.9v157.2l-115.6-133.8Z"/>
        <path class="st2" d="M838.2,828.5l-115.6-133.8v128.5h-11.8v-161.6l115.4,135.3v-131.5h12v163ZM713.9,820.1h5.5v-133.9l115.6,133.8v-151.3h-5.7v137l-115.4-135.3v149.8Z"/>
      </g>
      <g>
        <path class="st2" d="M987.3,801.5c-14.9,14.9-34,22.3-57.4,22.3s-42.4-7.4-57.2-22.1c-14.9-14.9-22.3-34-22.3-57.4s7.4-42.4,22.1-57.2c14.9-14.9,34-22.3,57.4-22.3s42.4,7.4,57.4,22.1c14.9,14.9,22.3,34,22.3,57.4s-7.4,42.4-22.3,57.2ZM981.1,693.5c-13.3-13.3-30.3-19.9-51.1-19.9s-37.4,6.6-50.7,19.9c-13.3,13.3-19.9,30.2-19.9,50.9s6.6,37.5,19.7,50.7c13.3,13.3,30.2,19.9,50.9,19.9s37.8-6.5,51.1-19.5c13.1-13.1,19.7-30.2,19.7-51.1s-6.6-37.7-19.7-50.9Z"/>
        <path class="st2" d="M930,825.4c-23.7,0-43.3-7.6-58.3-22.5-15.1-15.1-22.8-34.8-22.8-58.5s7.6-43.3,22.5-58.3c15.1-15.1,34.8-22.8,58.5-22.8s43.2,7.6,58.5,22.5c15.1,15.1,22.8,34.8,22.8,58.5s-7.7,43.3-22.8,58.3c-15.1,15.1-34.8,22.8-58.5,22.8ZM930,666.5c-22.8,0-41.8,7.4-56.3,21.8-14.3,14.3-21.6,33.2-21.6,56s7.3,41.8,21.8,56.3c14.3,14.3,33.2,21.6,56,21.6s41.8-7.4,56.3-21.8h0c14.5-14.4,21.8-33.2,21.8-56s-7.3-41.8-21.8-56.3c-14.6-14.3-33.6-21.6-56.3-21.6ZM930,816.6c-21,0-38.5-6.9-52-20.4-13.4-13.4-20.2-30.8-20.2-51.8s6.9-38.5,20.4-52c13.5-13.5,31-20.4,51.8-20.4s38.7,6.9,52.2,20.4h0c13.4,13.4,20.2,30.9,20.2,52s-6.8,38.8-20.2,52.2c-13.5,13.2-31.1,19.9-52.2,19.9ZM930,675.2c-20,0-36.6,6.5-49.5,19.5-12.9,12.9-19.5,29.6-19.5,49.8s6.5,36.8,19.2,49.5c12.9,12.9,29.7,19.5,49.8,19.5s37.1-6.4,50-19c12.8-12.8,19.2-29.6,19.2-50s-6.5-37-19.2-49.8c-12.9-12.9-29.7-19.5-50-19.5Z"/>
      </g>
    </g>
  </g>
</svg>